<svg xmlns="http://www.w3.org/2000/svg" data-name="Layer 1" viewBox="0 0 100 125" x="0px" y="0px" fill="#FF3B30" stroke="#B20A0A" stroke-width="3" stroke-linecap="round" stroke-linejoin="round">
  <path d="M78,5H38a2,2,0,0,0-1.41.59l-20,20A2,2,0,0,0,16,27V89a6,6,0,0,0,6,6H78a6,6,0,0,0,6-6V11A6,6,0,0,0,78,5ZM36,11.83V23a2,2,0,0,1-2,2H22.83ZM80,89a2,2,0,0,1-2,2H22a2,2,0,0,1-2-2V29H34a6,6,0,0,0,6-6V9H78a2,2,0,0,1,2,2Z"/>
  <path d="M37.68,67.5a2,2,0,0,0,2.64,3,15.1,15.1,0,0,1,19.36,0A2,2,0,0,0,61,71a2,2,0,0,0,1.32-3.5A19.19,19.19,0,0,0,37.68,67.5Z"/>
  <path d="M67.41,41.59a2,2,0,0,0-2.82,0L62,44.17l-2.59-2.58a2,2,0,0,0-2.82,2.82L59.17,47l-2.58,2.59a2,2,0,1,0,2.82,2.82L62,49.83l2.59,2.58a2,2,0,0,0,2.82-2.82L64.83,47l2.58-2.59A2,2,0,0,0,67.41,41.59Z"/>
  <path d="M40.59,52.41a2,2,0,0,0,2.82-2.82L40.83,47l2.58-2.59a2,2,0,0,0-2.82-2.82L38,44.17l-2.59-2.58a2,2,0,0,0-2.82,2.82L35.17,47l-2.58,2.59a2,2,0,1,0,2.82,2.82L38,49.83Z"/>
</svg>